<svg width="195" height="56" viewBox="0 0 195 56" fill="none" xmlns="http://www.w3.org/2000/svg">
<g clip-path="url(#clip0_4053_6656)">
<path d="M78.4129 26.6679L74.8635 21.5643L71.3771 26.6679H67.4707L72.9103 19.1911L67.7437 11.9663H71.6081L74.9895 16.7338L78.3078 11.9663H81.9832L76.8587 19.0651L82.3403 26.6679H78.4129Z" fill="white"/>
<path d="M83.0332 21.0136C83.0332 17.6048 85.6504 15.1653 89.1723 15.1653C91.1271 15.1653 92.7588 15.8761 93.8251 17.1686L92.1449 18.7195C91.3856 17.8471 90.4324 17.3947 89.3016 17.3947C87.1852 17.3947 85.6827 18.8811 85.6827 21.0136C85.6827 23.1461 87.1852 24.6324 89.3016 24.6324C90.4324 24.6324 91.3856 24.1801 92.1449 23.2915L93.8251 24.8425C92.7588 26.1511 91.1271 26.8619 89.1562 26.8619C85.6504 26.8619 83.0332 24.4224 83.0332 21.0136Z" fill="white"/>
<path d="M95.5859 15.3574H98.2031V24.5338H103.874V26.6663H95.5859V15.3574Z" fill="white"/>
<path d="M105.102 21.6921V15.3591H107.719V21.5952C107.719 23.7439 108.656 24.6324 110.239 24.6324C111.822 24.6324 112.759 23.7439 112.759 21.5952V15.3591H115.344V21.6921C115.344 25.0202 113.438 26.8619 110.223 26.8619C107.008 26.8619 105.102 25.0202 105.102 21.6921Z" fill="white"/>
<path d="M117.041 25.5533L117.93 23.5823C118.883 24.277 120.304 24.7617 121.662 24.7617C123.212 24.7617 123.843 24.2447 123.843 23.55C123.843 21.4336 117.267 22.8876 117.267 18.6872C117.267 16.7647 118.818 15.1653 122.033 15.1653C123.455 15.1653 124.909 15.5045 125.959 16.1669L125.151 18.1541C124.101 17.5563 123.019 17.2655 122.017 17.2655C120.466 17.2655 119.868 17.8471 119.868 18.5579C119.868 20.642 126.444 19.2042 126.444 23.3561C126.444 25.2464 124.876 26.8619 121.645 26.8619C119.852 26.8619 118.043 26.3288 117.041 25.5533Z" fill="white"/>
<path d="M128.236 15.3574H130.854V26.6663H128.236V15.3574Z" fill="white"/>
<path d="M144.343 15.3574L139.448 26.6663H136.863L131.984 15.3574H134.812L138.253 23.4352L141.742 15.3574H144.343Z" fill="white"/>
<path d="M154.037 24.5678V26.668H145.28V15.3591H153.827V17.4594H147.881V19.915H153.132V21.9506H147.881V24.5678H154.037Z" fill="white"/>
<path d="M68.0371 40.4003C68.0371 36.9915 70.6543 34.552 74.1762 34.552C76.131 34.552 77.7628 35.2628 78.829 36.5553L77.1488 38.1062C76.3895 37.2338 75.4364 36.7815 74.3055 36.7815C72.1891 36.7815 70.6866 38.2678 70.6866 40.4003C70.6866 42.5328 72.1891 44.0192 74.3055 44.0192C75.4364 44.0192 76.3895 43.5668 77.1488 42.6782L78.829 44.2292C77.7628 45.5378 76.131 46.2486 74.1601 46.2486C70.6543 46.2486 68.0371 43.8091 68.0371 40.4003Z" fill="white"/>
<path d="M79.6367 40.4003C79.6367 37.04 82.2539 34.552 85.8243 34.552C89.3947 34.552 92.0119 37.0238 92.0119 40.4003C92.0119 43.7768 89.3785 46.2486 85.8243 46.2486C82.2701 46.2486 79.6367 43.7607 79.6367 40.4003ZM89.364 40.4003C89.364 38.2516 87.8454 36.7815 85.8259 36.7815C83.8065 36.7815 82.2878 38.2516 82.2878 40.4003C82.2878 42.549 83.8065 44.0192 85.8259 44.0192C87.8454 44.0192 89.364 42.549 89.364 40.4003Z" fill="white"/>
<path d="M101.189 46.0547L99.0078 42.9044H96.6006V46.0547H93.9834V34.7458H98.8785C101.9 34.7458 103.79 36.3129 103.79 38.8494C103.79 40.5457 102.934 41.7897 101.463 42.4197L104 46.0547H101.189ZM98.7331 36.8784H96.6006V40.8203H98.7331C100.333 40.8203 101.14 40.0772 101.14 38.8494C101.14 37.6215 100.333 36.8784 98.7331 36.8784Z" fill="white"/>
<path d="M115.664 38.8494C115.664 41.3696 113.774 42.9367 110.753 42.9367H108.475V46.0547H105.857V34.7458H110.753C113.774 34.7458 115.664 36.3129 115.664 38.8494ZM113.014 38.8494C113.014 37.6054 112.207 36.8784 110.607 36.8784H108.475V40.8042H110.607C112.207 40.8042 113.014 40.0772 113.014 38.8494Z" fill="white"/>
<path d="M116.973 40.4003C116.973 37.04 119.59 34.552 123.16 34.552C126.731 34.552 129.348 37.0238 129.348 40.4003C129.348 43.7768 126.714 46.2486 123.16 46.2486C119.606 46.2486 116.973 43.7607 116.973 40.4003ZM126.698 40.4003C126.698 38.2516 125.18 36.7815 123.16 36.7815C121.141 36.7815 119.622 38.2516 119.622 40.4003C119.622 42.549 121.141 44.0192 123.16 44.0192C125.18 44.0192 126.698 42.549 126.698 40.4003Z" fill="white"/>
<path d="M138.524 46.0547L136.343 42.9044H133.936V46.0547H131.318V34.7458H136.213C139.235 34.7458 141.125 36.3129 141.125 38.8494C141.125 40.5457 140.269 41.7897 138.798 42.4197L141.335 46.0547H138.524ZM136.068 36.8784H133.936V40.8203H136.068C137.667 40.8203 138.475 40.0772 138.475 38.8494C138.475 37.6215 137.667 36.8784 136.068 36.8784Z" fill="white"/>
<path d="M150.641 43.6314H145.39L144.389 46.0547H141.707L146.748 34.7458H149.332L154.389 46.0547H151.643L150.641 43.6314ZM149.817 41.6443L148.024 37.3146L146.231 41.6443H149.817Z" fill="white"/>
<path d="M157.345 36.8784H153.727V34.7458H163.581V36.8784H159.963V46.0547H157.345V36.8784Z" fill="white"/>
<path d="M164.987 34.7441H167.604V46.053H164.987V34.7441Z" fill="white"/>
<path d="M169.575 40.4003C169.575 37.04 172.192 34.552 175.763 34.552C179.333 34.552 181.95 37.0238 181.95 40.4003C181.95 43.7768 179.317 46.2486 175.763 46.2486C172.209 46.2486 169.575 43.7607 169.575 40.4003ZM179.301 40.4003C179.301 38.2516 177.782 36.7815 175.763 36.7815C173.743 36.7815 172.225 38.2516 172.225 40.4003C172.225 42.549 173.743 44.0192 175.763 44.0192C177.782 44.0192 179.301 42.549 179.301 40.4003Z" fill="white"/>
<path d="M194.293 34.7441V46.053H192.144L186.506 39.1869V46.053H183.921V34.7441H186.086L191.708 41.6103V34.7441H194.293Z" fill="white"/>
<path d="M56 0H0V56H56V0Z" fill="white"/>
<path d="M27.9666 37.5163C27.9666 37.6342 27.8583 37.6924 27.6434 37.6924L25.2767 37.7069C25.1587 37.7069 25.0957 37.7021 25.086 37.6924C24.939 37.6439 24.0941 36.4226 22.5496 34.0316C21.0051 31.6405 20.2087 30.4402 20.1602 30.4289C19.9841 30.5565 19.1165 31.8166 17.5575 34.2077C16.0583 36.5308 15.2344 37.6924 15.0873 37.6924H12.6462C12.4201 37.6924 12.3086 37.6149 12.3086 37.4565V35.3402C12.3086 35.1544 13.2295 33.8377 15.0728 31.3934C16.9162 28.9474 17.837 27.6275 17.837 27.4304C17.837 27.2155 16.921 25.8714 15.0873 23.4012C13.2537 20.931 12.3377 19.6224 12.3377 19.4754V17.212C12.3377 17.0747 12.4701 17.0068 12.7351 17.0068C13.0001 17.0068 13.4217 17.0165 13.9694 17.0359C14.5187 17.0553 14.929 17.065 15.2037 17.065C15.2521 17.065 15.4331 17.2912 15.7481 17.7419C16.669 19.1927 18.0616 21.3591 19.9227 24.2397C19.9712 24.3075 20.0552 24.3818 20.1731 24.4594C20.3104 24.3915 21.1586 23.1314 22.716 20.6806C24.254 18.2702 25.0925 17.0634 25.2298 17.0634H27.553C27.8082 17.0634 27.9359 17.1328 27.9359 17.2686V19.5319C27.9359 19.7775 27.0215 21.1152 25.1943 23.545C23.3655 25.9764 22.4527 27.2543 22.4527 27.3819C22.4527 27.5386 23.3719 28.8699 25.2088 31.374C27.0473 33.8781 27.9649 35.219 27.9649 35.3951V37.5115L27.9666 37.5163Z" fill="black"/>
<path d="M46.4761 34.2966C46.4761 34.4145 46.3824 34.5809 46.1966 34.7958C44.2854 37.0107 41.9186 38.119 39.0963 38.119C36.2739 38.119 33.8037 37.0462 32.0395 34.8992C30.3933 32.8991 29.5693 30.3998 29.5693 27.4014C29.5693 24.4029 30.4078 21.8939 32.0831 19.8745C33.8667 17.6984 36.2238 16.6111 39.1544 16.6111C42.085 16.6111 44.4228 17.616 46.0496 19.6257C46.2063 19.8309 46.2855 20.0038 46.2855 20.1411C46.2855 20.3075 46.0254 20.8002 45.5068 21.6193C44.9866 22.4384 44.6732 22.8471 44.5665 22.8471C44.4389 22.8471 44.14 22.6064 43.6699 22.1266C43.0915 21.5385 42.5471 21.0975 42.0382 20.8035C41.1949 20.3236 40.2643 20.0829 39.2449 20.0829C37.3046 20.0829 35.7941 20.8228 34.7165 22.3027C33.7552 23.6258 33.2754 25.2915 33.2754 27.3012C33.2754 29.311 33.7504 30.9911 34.702 32.3434C35.7795 33.862 37.2852 34.6229 39.2158 34.6229C40.1755 34.6229 41.1028 34.3822 41.9946 33.9024C42.5826 33.589 43.1804 33.1431 43.7878 32.5647C44.2967 32.0849 44.5762 31.8442 44.6263 31.8442C44.6845 31.8442 45.0092 32.2335 45.5973 33.0122C46.1853 33.7909 46.4794 34.2206 46.4794 34.2982L46.4761 34.2966Z" fill="black"/>
</g>
<defs>
<clipPath id="clip0_4053_6656">
<rect width="194.293" height="56" fill="white"/>
</clipPath>
</defs>
</svg>
